<?xml version="1.0" encoding="UTF-8"?>
<svg id="Layer_1" data-name="Layer 1" xmlns="http://www.w3.org/2000/svg" viewBox="0 0 110 110">
  <defs>
    <style>
      .cls-1 {
        fill: #fff;
      }
    </style>
  </defs>
  <path class="cls-1" d="M63.42,66.22c-1.51-1.91-2.72-3.59-4.11-5.1-.71-.77-1.69-1.55-2.67-1.75-6.31-1.3-12.67-2.41-18.99-3.67-1.56-.31-2.49,.2-3.27,1.49-2.3,3.8-4.72,7.53-6.94,11.37-.62,1.08-1.03,2.45-1.04,3.69-.1,7.36-.05,14.72-.04,22.08,0,3.04,.44,3.47,3.53,3.47,24.58,0,49.16,0,73.74,0,3.01,0,3.39-.39,3.39-3.34,0-7.78,.06-15.56-.06-23.33-.02-1.2-.56-2.54-1.26-3.55-1.41-2.05-3.15-3.88-4.64-5.88-1.23-1.64-2.5-1.7-4.07-.54-1.55,1.15-3.17,2.2-5.04,3.48-1.15-2.07-2.45-3.89-3.21-5.91-1.88-5.01-5.47-7.94-10.46-9.45-1.12-.34-2.16-.95-3.24-1.42-2.35-1.03-3.2-.69-4.21,1.64-2.18,5.03-4.37,10.05-6.56,15.07-.19,.43-.43,.85-.86,1.66Zm-5.3,18.89c-5.44-3.49-10.69-6.72-15.78-10.2-2.15-1.46-3.9-1.6-6.03-.1-1.76,1.24-3.74,2.17-5.62,3.24l-.65-.39c.37-2.55,.25-5.32,1.23-7.61,1.35-3.16,3.57-5.93,5.33-8.92,.67-1.14,1.43-1.43,2.73-1.16,4.62,.97,9.25,1.86,13.9,2.69,1.93,.35,3.45,1.07,4.58,2.8,1.21,1.85,2.67,3.55,4.08,5.27,1.76,2.15,3.15,1.96,4.28-.6,2.33-5.27,4.62-10.55,6.92-15.83q1.1-2.53,3.52-1.45c1.27,.57,2.63,.99,3.77,1.75,1.15,.76,2.37,1.68,3.07,2.83,2.01,3.32,3.75,6.8,5.63,10.2,1.18,2.13,2.11,2.33,4.16,.95,1.38-.93,2.72-1.92,4.13-2.81,.42-.26,1.09-.54,1.47-.38,2.17,.92,4.47,6.06,3.92,8.82-.65-.27-1.33-.44-1.88-.8-2.05-1.34-3.82-1.21-5.53,.66-1.03,1.12-2.3,2.01-3.46,3-2.43,2.05-4.86,4.1-7.17,6.04-3.31-3.21-6.5-6.2-9.54-9.33-1.42-1.46-2.72-1.63-4.42-.65-1.5,.86-3.04,1.74-4.66,2.31-3.77,1.33-6.18,3.76-7.02,7.71-.12,.58-.51,1.1-.92,1.96Zm23.65,.52c-3.02,2.59-5.46,4.85-8.08,6.86-1.01,.77-2.44,1.35-3.69,1.36-11.46,.1-22.91,.06-34.37,.06-5.26,0-4.99-.02-5.35-5.19-.29-4.21,.56-7.26,4.91-8.64,.84-.27,1.62-.81,2.33-1.36,1.25-.97,2.28-.74,3.54,.09,5.38,3.55,10.82,7.03,16.27,10.48,2.13,1.35,3.06,1.02,4-1.25,.8-1.92,1.49-3.89,2.35-5.78,.32-.71,.85-1.48,1.5-1.85,1.98-1.14,4.05-2.13,6.13-3.08,.46-.21,1.33-.23,1.65,.06,2.92,2.64,5.76,5.37,8.8,8.23Zm-2.79,8.28c.14-.53,.13-.7,.21-.77,6.15-5.28,12.26-10.61,18.55-15.71,.64-.52,2.53,.2,3.68,.72,.7,.31,1.51,1.3,1.54,2.02,.15,4.01,.02,8.04,.1,12.06,.03,1.46-.65,1.73-1.89,1.71-3.4-.05-6.79-.02-10.19-.01-3.94,0-7.87,0-11.99,0Z"/>
  <path class="cls-1" d="M36.13,32.04c-.84,.46-1.72,.72-2.3,1.29-9.7,9.65-19.37,19.33-29.05,29.01-2.42,2.42-2.42,2.83-.04,5.2,1.28,1.27,2.56,2.55,3.84,3.82,1.86,1.84,2.63,1.85,4.49,0,9.83-9.82,19.65-19.64,29.46-29.48,.53-.53,.85-1.28,1.27-1.93,.39-.08,.78-.15,1.17-.23,.5,.84,.86,1.81,1.52,2.49,4.18,4.27,8.38,8.51,12.69,12.64,.78,.75,2.24,1.5,3.12,1.27,1.55-.41,1.23-1.95,.99-3.34-1.21-6.83-3.86-13-8.08-18.51-.42-.55-.52-1.53-.42-2.26,.27-1.93-.12-3.56-1.54-4.94-1.6-1.55-3.14-3.14-4.72-4.71-1.33-1.32-2.91-1.7-4.78-1.46-.82,.1-1.9-.09-2.54-.57-5.14-3.87-10.89-6.37-17.16-7.64-1.44-.29-3.34-1.15-4.36,.67-1.08,1.92,.82,2.87,1.86,3.94,4.13,4.22,8.34,8.36,12.51,12.54,.48,.48,.92,1,2.06,2.23Zm5.45,5.14c-.74,.78-1.25,1.34-1.78,1.87-8.83,8.84-17.65,17.7-26.51,26.51-2.62,2.61-1.86,3.12-4.96-.09-.13-.14-.18-.36-.12-.23,10.23-10.25,20.35-20.39,30.59-30.65,.8,.75,1.75,1.63,2.78,2.59Zm-1.82-7.91c1.4-1.29,2.88-2.73,4.47-4.04,.32-.26,1.27-.24,1.58,.04,1.59,1.43,3.14,2.93,4.55,4.55,.33,.38,.31,1.51-.02,1.94-1.19,1.59-2.59,3.03-3.72,4.33-2.46-2.45-4.5-4.47-6.86-6.82Zm-2.69-2.77c-2.79-2.9-5.48-5.69-8.16-8.48,0-.08,.01-.15,.02-.23,3.53,1.96,7.07,3.93,11.05,6.14-1.37,1.21-2.18,1.93-2.9,2.57Zm14.48,9.64c2.89,3.56,4.89,7.05,6.16,11.17-2.94-2.95-5.69-5.71-8.51-8.54,.64-.72,1.4-1.57,2.35-2.63Z"/>
</svg>