<?xml version="1.0" encoding="UTF-8"?>
<svg id="Layer_1" data-name="Layer 1" xmlns="http://www.w3.org/2000/svg" viewBox="0 0 110 110">
  <defs>
    <style>
      .cls-1 {
        fill: #fff;
      }
    </style>
  </defs>
  <path class="cls-1" d="M35.78,37.92c7.34-.08,14.48-1.19,21.2-4.32,3.67-1.71,6.99-3.89,9.2-7.41,2.28-3.61,2.26-7.28-.02-10.88-2.36-3.72-5.94-5.97-9.87-7.68-7.84-3.42-16.09-4.37-24.56-3.83-5.49,.35-10.83,1.39-15.93,3.55-3.09,1.31-5.95,2.97-8.37,5.33-5.03,4.92-5.08,11.16-.05,16.09,4.33,4.24,9.73,6.44,15.53,7.63,4.22,.86,8.53,1.26,12.8,1.87,.02-.12,.04-.24,.06-.36Z"/>
  <path class="cls-1" d="M74.29,46.41c-7.39,.07-14.58,1.2-21.34,4.36-3.62,1.69-6.9,3.86-9.09,7.33-2.32,3.66-2.3,7.36,.05,11,2.36,3.66,5.89,5.89,9.77,7.59,7.84,3.43,16.09,4.39,24.55,3.86,5.49-.35,10.84-1.38,15.93-3.54,3.13-1.33,6.04-3.01,8.48-5.42,4.96-4.89,4.99-11.1,.02-15.99-4.32-4.25-9.72-6.46-15.52-7.65-4.22-.87-8.53-1.27-12.8-1.88-.02,.12-.04,.24-.06,.36Z"/>
  <path class="cls-1" d="M106.36,83.6c-4.07,7.92-11.32,10.82-19.07,12.66-10.33,2.46-20.68,2.16-30.76-1.41-2.75-.97-5.36-2.42-7.86-3.95-2.8-1.71-4.89-4.19-6.25-7.3-.17,3.68-.89,7.38,1.24,10.8,2.4,3.84,6.01,6.14,10,7.95,5.4,2.44,11.13,3.54,17,3.88,7.87,.45,15.56-.42,22.95-3.35,3.16-1.25,6.1-2.89,8.59-5.23,2.73-2.56,4.36-5.59,4.17-9.45-.08-1.53-.01-3.06-.01-4.59Z"/>
  <path class="cls-1" d="M42.45,70.73c-.7,5.28-.53,10.23,3.86,14.11,4.45,3.93,9.73,6.09,15.41,7.3,11.04,2.35,21.92,1.9,32.49-2.34,3.02-1.21,5.8-2.86,8.16-5.13,2.62-2.52,4.18-5.49,4-9.24-.08-1.55-.01-3.1-.3-4.68-.63,1.09-1.19,2.23-1.92,3.25-2.25,3.15-5.36,5.29-8.87,6.72-14.44,5.88-28.88,5.9-43.16-.56-4.29-1.94-7.78-4.9-9.68-9.43Z"/>
  <path class="cls-1" d="M3.97,27.97c-.77,7.23-.64,11.01,6.15,15.89,5.72,4.11,12.36,5.72,19.22,6.52,5.4,.63,10.81,.5,16.18-.48,.5-.09,1.01-.29,1.43-.56,4.32-2.8,9.05-4.57,14.03-5.76,.75-.18,1.52-.56,2.11-1.05,3.22-2.72,5.1-6.07,4.79-10.44-.1-1.36-.02-2.73-.35-4.15-.16,.31-.34,.61-.48,.92-1.33,2.9-3.51,5.05-6.13,6.78-5.52,3.65-11.72,5.33-18.21,6.08-9.21,1.06-18.22,.28-26.85-3.31-2-.83-3.92-1.94-5.74-3.13-2.75-1.8-4.84-4.22-6.15-7.32Z"/>
  <path class="cls-1" d="M40.89,54.71c-.88,.08-1.52,.17-2.17,.2-8.18,.36-16.14-.63-23.69-3.97-3.83-1.69-7.29-3.93-9.63-7.54-.53-.82-.95-1.72-1.58-2.89-.46,5.21-.59,9.95,3.35,13.78,3.21,3.13,7.05,5.15,11.22,6.57,5.95,2.02,12.11,2.85,18.38,2.69,.38,0,1.05-.43,1.07-.7,.23-2.91,1.34-5.5,3.03-8.14Z"/>
  <path class="cls-1" d="M37.79,76.28v-8.33c-2.51-.13-5.01-.2-7.5-.41-5.29-.44-10.42-1.56-15.27-3.78-4.75-2.18-8.92-5.04-11.09-10.13-.58,4.97-.67,9.74,3.35,13.58,3.16,3.03,6.9,5.01,10.97,6.41,6.08,2.09,12.36,2.91,18.78,2.77,.23,0,.45-.07,.76-.12Z"/>
  <path class="cls-1" d="M37.78,89.12v-8.34c-2.5-.13-5-.2-7.49-.41-5.29-.44-10.42-1.56-15.27-3.78-4.75-2.18-8.92-5.04-11.09-10.13-.58,4.96-.67,9.73,3.34,13.57,3.16,3.03,6.9,5.02,10.97,6.42,6.08,2.09,12.36,2.91,18.78,2.78,.23,0,.45-.07,.76-.11Z"/>
</svg>