<?xml version="1.0" encoding="UTF-8"?>
<svg id="Layer_1" data-name="Layer 1" xmlns="http://www.w3.org/2000/svg" viewBox="0 0 110 110">
  <defs>
    <style>
      .cls-1 {
        fill: #fff;
      }
    </style>
  </defs>
  <path class="cls-1" d="M90.73,51.75c.07,.66,.21,1.32,.21,1.98,.01,13.33,.01,26.67,.01,40,0,2.33,0,2.33,2.31,2.34,3.28,0,6.56-.01,9.84,0,2.24,.01,3.4,.91,3.37,2.54-.03,1.58-1.17,2.43-3.31,2.43-27.42,0-54.84,0-82.26,0-4.95,0-9.89,.01-14.84,0-2.6-.01-3.3-.66-3.37-3.2-.07-2.69-.05-5.37-.05-8.06,0-21.4,0-42.8,0-64.19,0-1.29,0-2.58,.1-3.87,.11-1.53,1.05-2.34,2.53-2.32,1.4,.02,2.35,.95,2.43,2.46,.06,1.13,.05,2.26,.05,3.39,0,17.2,.01,34.41-.03,51.61,0,1.01-.57,2.01-.68,3.04-.22,2.22-1.09,4.5,.37,6.66,.27,.4,.31,1.01,.32,1.53,.03,2.1,.04,4.19,0,6.29-.03,1.22,.44,1.76,1.7,1.73,2.1-.06,4.19-.05,6.29,0,1.18,.03,1.64-.47,1.62-1.63-.04-2.1,0-4.19,0-6.29,0-1.05,.44-1.46,1.56-1.52,3.86-.21,7.71-.53,11.56-.88,1.23-.11,1.52,.51,1.52,1.5,0,2.26,0,4.52,0,6.77,0,1.83,.25,2.06,2.21,2.06,1.95,0,2.26-.26,2.27-2.03,.01-2.47,.03-4.95-.02-7.42-.02-1.32,.4-1.9,1.83-2.26,3.73-.95,7.39-2.17,11.04-3.38,1.34-.45,1.8-.3,1.81,1.13,.03,3.98,.06,7.96-.01,11.94-.03,1.54,.51,2.07,2.06,2.03,3.1-.07,3.1,0,3.1-3.08,0-4.35,.02-8.71-.03-13.06-.01-1.21,.42-1.92,1.51-2.54,4.01-2.26,7.94-4.67,11.92-6.99,1.1-.64,1.27,.1,1.27,.98,.01,3.12,.04,6.23,.04,9.35,0,4.35,0,8.71,0,13.06,0,1.98,.26,2.22,2.23,2.24q3.09,.03,3.09-3.08c0-8.55,.03-17.1-.01-25.65,0-1.36,.5-2.23,1.48-3.16,3.8-3.63,7.48-7.38,11.18-11.12,.47-.48,.76-1.14,1.14-1.72,.22,.14,.43,.27,.65,.41Z"/>
  <path class="cls-1" d="M12.42,82.8c1.61-.37,3.23-.71,4.84-1.11,4.31-1.07,8.71-1.9,12.9-3.33,4.19-1.43,8.26-3.29,12.22-5.28,10.55-5.3,19.45-12.71,27.06-21.7,5.86-6.92,10.46-14.65,14.48-22.74,1.1-2.22,1.01-2.45-.94-3.96-2.28-1.78-4.54-3.58-7.05-5.55,.62-.45,1.05-.95,1.58-1.12,5.31-1.71,10.63-3.36,15.95-5.03,3.78-1.19,7.58-2.35,11.34-3.62,2.32-.78,2.62-.63,2.55,1.82-.25,8.11-.5,16.22-.78,24.34-.02,.66-.21,1.32-.38,2.28-2.2-1.6-4.13-3.01-6.24-4.55-.4,.46-.89,.87-1.19,1.39-6.56,11.52-15.15,21.29-25.47,29.56-6.95,5.57-14.59,9.99-22.86,13.23-6.76,2.65-13.75,4.58-21.01,5.2-4.81,.42-9.65,.56-14.47,.78-.84,.04-1.69-.12-2.54-.19,0-.14,0-.29,.01-.43Z"/>
  <path class="cls-1" d="M36.87,71.55c-.16-.74-.38-1.33-.39-1.92-.04-3.43,0-6.87-.06-10.3-.03-1.49,.46-2.11,2.05-2.07,3.59,.1,7.19,.06,10.78,.01,1.33-.02,2.03,.4,1.91,1.84-.08,.91,.1,1.84-.06,2.73-.12,.68-.41,1.53-.92,1.9-4.12,2.95-8.38,5.7-13.32,7.81Z"/>
  <path class="cls-1" d="M56.45,58.46c-.09-.73-.17-1.13-.17-1.54-.01-4.52-.02-9.03-.01-13.55,0-1.97,.23-2.21,2.24-2.22,3.6-.02,7.2-.02,10.81,.01,.48,0,1.31,.23,1.36,.47,.11,.56,.03,1.34-.31,1.78-1.97,2.61-3.94,5.23-6.09,7.69-1.91,2.18-4.03,4.17-6.09,6.2-.42,.42-1,.67-1.73,1.14Z"/>
  <path class="cls-1" d="M24.77,70.79c1.77,0,3.55-.02,5.32,0,.77,.01,1.73-.19,1.86,1,.11,1.06,.08,2.03-1.22,2.45-2.61,.82-5.18,1.74-7.79,2.55-1.33,.41-2.7,.7-4.06,.99-1.07,.23-1.62-.17-1.57-1.36,.06-1.29,.08-2.58,0-3.87-.08-1.25,.43-1.78,1.66-1.77,1.93,.02,3.87,0,5.8,0,0,0,0,0,0,0Z"/>
  <path class="cls-1" d="M76.34,32.68c0-2.22-.02-4.43,.03-6.65,0-.21,.5-.59,.76-.58,1.36,.03,2.58,1.91,2.01,3.15-.63,1.4-1.4,2.75-2.11,4.12-.23-.01-.47-.03-.7-.04Z"/>
</svg>